<svg id="Layer_1" data-name="Layer 1" xmlns="http://www.w3.org/2000/svg" viewBox="0 0 497 111"><defs><style>.cls-1{fill:none;stroke:#ed1c24;stroke-linecap:round;stroke-linejoin:round;stroke-width:2px;}</style></defs><path class="cls-1" d="M52.5,176.5l5.21-6.94a1.07,1.07,0,0,1,1.66-.07l5.75,6.57a1.26,1.26,0,0,0,1,.44H77.44a2.19,2.19,0,0,0,2.19-2.06L84.5,95.5l4.82,104.12a.45.45,0,0,0,.89.06l4.22-22.81a.45.45,0,0,1,.44-.37h22.91A1.87,1.87,0,0,0,119,176l14.32-13.43a1.27,1.27,0,0,1,2,.28l7.79,13a1.37,1.37,0,0,0,1.18.67h39.56a1.35,1.35,0,0,0,1.06-.53l5.27-7a.44.44,0,0,1,.69,0l6.28,7.17a1.21,1.21,0,0,0,.91.41h12a.45.45,0,0,0,.45-.42l5-79.58,4.82,102.25a.45.45,0,0,0,.89.06l4.22-21.95a.44.44,0,0,1,.44-.36H289.5c2,0,28,2,18,10-5,4-27.35-18.65-36-43v0c-7-26,24-33,42-4,20,30-5,40,2,3a.22.22,0,0,0,0-.08c.05-11.59,20.5-50.58,36.27-28.5a29.89,29.89,0,0,1,5.15,21c-4.29,34.9-30.91,58.91-36.42,63.5-6,5-12-5,0-15,11.5-9.58,37.68-17.33,49.53-15.32,1.21.2,2.41.39,3.62.51,12.47,1.21,29.16,4.84,36.2,9.37a.45.45,0,0,0,.7-.34L415.5,98.5l6,106,4.81-25a1.23,1.23,0,0,1,1.21-1H447a4,4,0,0,0,2.69-1l15.06-13.39a2,2,0,0,1,3,.47l7.08,11.8a2.37,2.37,0,0,0,2,1.14h37.8a1.63,1.63,0,0,0,1.35-.72l4.79-7.18a1,1,0,0,1,1.61-.11l7,7.86a.41.41,0,0,0,.33.15h11.62a1.24,1.24,0,0,0,1.25-1.17L547.5,98.5" transform="translate(-51.5 -94.5)"/></svg>